<svg xmlns="http://www.w3.org/2000/svg" width="14.504" height="16.565" viewBox="0 0 14.504 16.565">
  <path id="icon" d="M17.5,12.388a2.4,2.4,0,0,0-1.478-2.221l1.454-5.593a.816.816,0,0,0-.14-.7.769.769,0,0,0-.614-.28H6.066L5.81,2.591A.781.781,0,0,0,5.055,2H3.5V3.6h.957L6.385,11a.781.781,0,0,0,.778.591h8a.8.8,0,0,1,0,1.6H5.055a.8.8,0,0,0,0,1.6h.918a2.436,2.436,0,0,0,.8,2.741,2.283,2.283,0,0,0,2.785,0,2.436,2.436,0,0,0,.8-2.741h1.835a2.443,2.443,0,0,0,.6,2.567,2.286,2.286,0,0,0,2.531.447,2.43,2.43,0,0,0,1.086-3.389A2.413,2.413,0,0,0,17.5,12.388Zm-3.041-2.4H7.777L6.486,5.2h9.223ZM8.166,16.383a.8.8,0,1,1,.778-.8A.789.789,0,0,1,8.166,16.383Zm6.221,0a.8.8,0,1,1,.778-.8A.789.789,0,0,1,14.387,16.383Z" transform="translate(-3.25 -1.75)" fill="#fff" stroke="#0488d3" stroke-width="0.5"/>
</svg>
