<svg xmlns="http://www.w3.org/2000/svg" width="28" height="28" viewBox="0 0 28 28">
  <g id="icon" transform="translate(-129 -55)">
    <path id="Path_2932" data-name="Path 2932" d="M226.269,138.474c-.724,1.529-1.433,3.011-2.12,4.5a.744.744,0,0,1-.758.464c-1.595.053-1.574.055-2.184-1.273q-3.87-8.431-7.762-16.853-1.628-3.534-3.252-7.069c-.271-.592-.2-.678.49-.679,1.76,0,3.52.015,5.279-.011a.9.9,0,0,1,.99.636c1.185,2.856,2.408,5.7,3.614,8.548q1.538,3.634,3.069,7.27c.108.256.147.558.544.736.406-.842.82-1.667,1.205-2.5q3.075-6.675,6.138-13.354c.579-1.261.575-1.263,2.05-1.267.8,0,1.594,0,2.611,0C232.828,124.678,229.561,131.554,226.269,138.474Z" transform="translate(-81.046 -62.554)" fill="#0e2960"/>
    <path id="Path_2933" data-name="Path 2933" d="M399.9,296.969c.8.008,1.566-.134,2.338-.177,1.115-.063,2.214-.251,3.329-.322a27.038,27.038,0,0,1,2.8-.028,12.934,12.934,0,0,1,4.18.721,4.543,4.543,0,0,1,1.73,1.087c.067.072.152.136.157.241-.054.048-.1.021-.146-.006a8.535,8.535,0,0,0-2.907-.978,16.5,16.5,0,0,0-3.635-.164,24.767,24.767,0,0,0-3.625.5,23.5,23.5,0,0,1-3.451.379,18.122,18.122,0,0,1-2.661-.071,9.012,9.012,0,0,1-4.4-1.444c-.054-.038-.124-.064-.147-.145.072-.064.143-.012.209.011a8.73,8.73,0,0,0,2.4.41c1.049.063,2.1.032,3.144.031C399.436,297.014,399.655,296.985,399.9,296.969Z" transform="translate(-257.432 -215.518)" fill="#0488d3"/>
  </g>
</svg>
